<?xml version="1.0" standalone="no"?><!DOCTYPE svg PUBLIC "-//W3C//DTD SVG 1.1//EN" "http://www.w3.org/Graphics/SVG/1.1/DTD/svg11.dtd"><svg t="1721736994244" class="icon" viewBox="0 0 1024 1024" version="1.1" xmlns="http://www.w3.org/2000/svg" p-id="9274" xmlns:xlink="http://www.w3.org/1999/xlink" width="200" height="200"><path d="M760 840a8 8 0 0 1 8 8v56a8 8 0 0 1-8 8H264a8 8 0 0 1-8-8v-56a8 8 0 0 1 8-8h496z m120-726c17.673 0 32 14.327 32 32v580c0 17.673-14.327 32-32 32H144c-17.673 0-32-14.327-32-32V146c0-17.673 14.327-32 32-32h736z m-40 72H184v500h656V186z" fill="#1C6EFF" p-id="9275"></path><path d="M400 276a8 8 0 0 1 8 8v304a8 8 0 0 1-8 8h-48a8 8 0 0 1-8-8V284a8 8 0 0 1 8-8h48z m136 64a8 8 0 0 1 8 8v240a8 8 0 0 1-8 8h-48a8 8 0 0 1-8-8V348a8 8 0 0 1 8-8h48z m136 96a8 8 0 0 1 8 8v144a8 8 0 0 1-8 8h-48a8 8 0 0 1-8-8V444a8 8 0 0 1 8-8h48z" fill="#44D7B6" p-id="9276"></path></svg>